<?xml version="1.0" standalone="no"?>
<!DOCTYPE svg PUBLIC "-//W3C//DTD SVG 20010904//EN"
 "http://www.w3.org/TR/2001/REC-SVG-20010904/DTD/svg10.dtd">
<svg version="1.0" xmlns="http://www.w3.org/2000/svg"
 width="2000.000000pt" height="2000.000000pt" viewBox="0 0 2000.000000 2000.000000"
 preserveAspectRatio="xMidYMid meet">
<metadata>
Created by potrace 1.11, written by Peter Selinger 2001-2013
</metadata>
<g transform="translate(0.000000,2000.000000) scale(0.100000,-0.100000)"
fill="#000000" stroke="none">
<path d="M0 10000 l0 -10000 10000 0 10000 0 0 10000 0 10000 -10000 0 -10000
0 0 -10000z m7463 5272 c1390 -1057 2532 -1922 2537 -1922 5 0 1201 906 2657
2014 1457 1107 2649 2012 2651 2011 2 -2 -533 -1438 -1189 -3192 -656 -1753
-1194 -3199 -1196 -3213 -2 -15 224 -708 556 -1704 309 -924 559 -1681 557
-1683 -1 -2 -483 152 -1071 342 -587 191 -1068 345 -1070 343 -1 -2 -427
-1660 -946 -3685 -519 -2026 -946 -3683 -949 -3683 -3 0 -210 795 -459 1768
-249 972 -673 2629 -943 3682 -270 1053 -492 1916 -493 1918 -3 3 -2006 -642
-2093 -674 -24 -9 -45 -14 -47 -12 -3 2 247 760 555 1684 308 923 560 1685
560 1693 0 7 -536 1447 -1191 3200 -655 1752 -1194 3195 -1197 3205 -3 13 39
-15 119 -76 68 -52 1261 -960 2652 -2016z"/>
<path d="M6480 14913 c0 -4 246 -894 546 -1976 l546 -1968 -286 -1156 c-157
-636 -285 -1158 -283 -1159 2 -2 358 111 792 251 433 141 789 254 790 253 1
-2 318 -1071 705 -2375 387 -1305 706 -2373 710 -2373 4 0 323 1068 710 2373
387 1304 704 2373 705 2375 1 1 357 -112 790 -253 434 -140 790 -253 792 -251
2 1 -126 523 -283 1159 l-286 1156 547 1971 c301 1084 545 1973 543 1975 -1 1
-794 -546 -1761 -1217 l-1757 -1219 -1698 1177 c-933 647 -1725 1197 -1759
1222 -35 24 -63 40 -63 35z m5174 -3952 c-220 -159 -1645 -1151 -1654 -1151
-8 0 -1436 994 -1654 1151 l-40 29 1694 0 1694 0 -40 -29z"/>
</g>
</svg>
